<svg xmlns="http://www.w3.org/2000/svg" width="18.335" height="17.92" viewBox="0 0 18.335 17.92">
  <g id="_126488" data-name="126488" transform="translate(0 -17.25)" opacity="0.4">
    <g id="Group_15" data-name="Group 15" transform="translate(0 17.25)">
      <path id="Path_9" data-name="Path 9" d="M17.81,228.232a.538.538,0,0,0-.525.554v5.039a2.424,2.424,0,0,1-2.354,2.483H3.4a2.424,2.424,0,0,1-2.354-2.483V228.7a.538.538,0,0,0-.525-.554A.538.538,0,0,0,0,228.7v5.121a3.505,3.505,0,0,0,3.4,3.59H14.931a3.505,3.505,0,0,0,3.4-3.59v-5.039A.541.541,0,0,0,17.81,228.232Z" transform="translate(0 -219.496)" fill="#333"/>
      <path id="Path_10" data-name="Path 10" d="M139.913,30.771a.558.558,0,0,0,.39.164.54.54,0,0,0,.39-.164l3.521-3.521a.554.554,0,0,0-.784-.784l-2.573,2.577V17.8a.554.554,0,0,0-1.108,0V29.043l-2.577-2.577a.554.554,0,0,0-.784.784Z" transform="translate(-131.135 -17.25)" fill="#333"/>
    </g>
  </g>
</svg>
