<svg xmlns="http://www.w3.org/2000/svg" width="239.852" height="25" viewBox="0 0 239.852 25">
  <g id="Group_25" data-name="Group 25" transform="translate(-1112 -78)">
    <g id="_482964" data-name="482964" transform="translate(1112 -102)">
      <g id="Group_24" data-name="Group 24" transform="translate(0 180)">
        <path id="Path_17" data-name="Path 17" d="M31.973,203.141c-.108-8.9-7.776-16.14-17.318-16.464V182a2,2,0,0,0-2-2,1.974,1.974,0,0,0-1.345.535S2.884,188.337.461,190.77a1.873,1.873,0,0,0,0,2.46c2.424,2.432,10.851,10.234,10.851,10.234a1.974,1.974,0,0,0,1.345.535,2,2,0,0,0,2-2v-4.662c9.592.135,15.987,3.163,15.987,6a.666.666,0,0,0,.666.667.114.114,0,0,0,.026,0,.669.669,0,0,0,.639-.858Z" transform="translate(0 -180)" fill="rgba(51,51,51,0.4)"/>
      </g>
    </g>
    <path id="Union_2" data-name="Union 2" d="M38.308,24a.666.666,0,0,1-.666-.667c0-2.832-6.395-5.861-15.987-5.995V22a2,2,0,0,1-2,2,1.971,1.971,0,0,1-1.345-.535s-8.427-7.8-10.85-10.234a1.873,1.873,0,0,1,0-2.461C9.885,8.337,18.311.535,18.311.535A1.971,1.971,0,0,1,19.656,0a2,2,0,0,1,2,2V6.677C31.2,7,38.865,14.245,38.973,23.141a.676.676,0,0,1,.027.192.666.666,0,0,1-.666.667h-.026ZM3.545,16.522A43.142,43.142,0,0,0,.461,13.23a1.873,1.873,0,0,1,0-2.461C2.885,8.337,11.311.535,11.311.535A1.972,1.972,0,0,1,12.657,0a2,2,0,0,1,2,2L4.39,12l2.5,3.058a2,2,0,0,1-2,2A1.972,1.972,0,0,1,3.545,16.522Z" transform="translate(1184 78)" fill="rgba(51,51,51,0.4)"/>
    <g id="noun_Trash_1526083" transform="translate(1707.4 379.2)">
      <g id="Group" transform="translate(-379.4 -301.2)">
        <path id="Path" d="M36.376,10.8a1.276,1.276,0,0,0,0,2.551h6.952a1.276,1.276,0,0,0,0-2.551Z" transform="translate(-27.925 -10.8)" fill="#adadad"/>
        <path id="Compound_Path" data-name="Compound Path" d="M35.177,22.4h-21.3a1.276,1.276,0,0,0,0,2.551h1.276l1.371,15.242A3.827,3.827,0,0,0,20.349,43.7H28.7a3.827,3.827,0,0,0,3.827-3.508L33.9,24.951h1.276a1.276,1.276,0,1,0,0-2.551Z" transform="translate(-12.6 -18.701)" fill="#adadad"/>
      </g>
    </g>
    <path id="Path_20" data-name="Path 20" d="M7.2,964.362a2.214,2.214,0,0,0-2.2,2.2v16.5a2.214,2.214,0,0,0,2.2,2.2H27.555a2.214,2.214,0,0,0,2.2-2.2V970.413a2.214,2.214,0,0,0-2.2-2.2H16.45a38.118,38.118,0,0,0-2.209-3.163,2.212,2.212,0,0,0-1.539-.688Z" transform="translate(1258 -884.362)" fill="#adadad"/>
  </g>
</svg>
