<svg xmlns="http://www.w3.org/2000/svg" width="23.511" height="22.959" viewBox="0 0 23.511 22.959">
  <g id="noun_Star_2986785" transform="translate(-7.004 -8.4)" opacity="0.6">
    <g id="Group_7" data-name="Group 7" transform="translate(7.872 9.25)">
      <path id="Path_4" data-name="Path 4" d="M20.2,10.26l2.615,5.119,5.492.808a1.54,1.54,0,0,1,.785,2.694L24.9,22.924l1.046,5.658A1.519,1.519,0,0,1,23.6,30.2L18.628,27.5,13.659,30.2a1.615,1.615,0,0,1-2.354-1.617l1.046-5.658L8.429,18.882c-1.046-1.078-.523-2.694.785-2.694l5.492-.808L17.32,10.26A1.529,1.529,0,0,1,20.2,10.26Z" transform="translate(-7.872 -9.25)" fill="none" stroke="#333" stroke-width="1.7" fill-rule="evenodd"/>
    </g>
  </g>
</svg>
