<svg xmlns="http://www.w3.org/2000/svg" width="24.687" height="17.557" viewBox="0 0 24.687 17.557">
  <g id="noun_contact_2984932" transform="translate(495.605 -264.411)">
    <g id="Group_6" data-name="Group 6" transform="translate(-495.605 264.411)">
      <path id="Path_2" data-name="Path 2" d="M31.46,20.411H10.017A1.622,1.622,0,0,0,8.4,22.032v.186L20.739,29.79l12.342-7.548v-.21A1.621,1.621,0,0,0,31.46,20.411Z" transform="translate(-8.395 -20.411)" fill="#1fb5eb"/>
      <path id="Path_3" data-name="Path 3" d="M20.738,43.481A1.213,1.213,0,0,1,20.1,43.3L8.4,36.12V47.395a1.622,1.622,0,0,0,1.622,1.622H31.46a1.622,1.622,0,0,0,1.622-1.622V36.141L21.373,43.3A1.217,1.217,0,0,1,20.738,43.481Z" transform="translate(-8.395 -31.46)" fill="#1fb5eb"/>
    </g>
  </g>
</svg>
