<svg xmlns="http://www.w3.org/2000/svg" width="24.631" height="24.631" viewBox="0 0 24.631 24.631">
  <g id="noun_Box_2466558" transform="translate(562 579)" opacity="0.6">
    <g id="Layer_2" data-name="Layer 2" transform="translate(-562 -579)">
      <path id="Path_6" data-name="Path 6" d="M23.028,27.063H3.6A2.6,2.6,0,0,1,1,24.46V11.6A2.6,2.6,0,0,1,3.6,9H23.028a2.6,2.6,0,0,1,2.6,2.6V24.46A2.6,2.6,0,0,1,23.028,27.063ZM3.6,10.642a.961.961,0,0,0-.961.961V24.46a.961.961,0,0,0,.961.961H23.028a.961.961,0,0,0,.961-.961V11.6a.961.961,0,0,0-.961-.961Z" transform="translate(-1 -2.432)" fill="#333"/>
      <rect id="Rectangle_4" data-name="Rectangle 4" width="16" height="2" rx="1" transform="translate(4 3)" fill="#333"/>
      <rect id="Rectangle_5" data-name="Rectangle 5" width="12" height="2" rx="1" transform="translate(6 0)" fill="#333"/>
      <path id="Path_7" data-name="Path 7" d="M16.039,15.708H14.4a2.775,2.775,0,0,1-2.767-2.767V9h7.184v3.933a2.775,2.775,0,0,1-2.775,2.775Zm-2.767-5.066v2.291A1.133,1.133,0,0,0,14.4,14.066h1.642a1.133,1.133,0,0,0,1.133-1.125v-2.3Z" transform="translate(-2.902 -2.432)" fill="#333"/>
    </g>
  </g>
</svg>
