<svg xmlns="http://www.w3.org/2000/svg" width="20.931" height="21.939" viewBox="0 0 20.931 21.939">
  <g id="noun_Trash_1526083" transform="translate(379.4 301.2)" opacity="0.6">
    <g id="Group" transform="translate(-379.4 -301.2)">
      <path id="Path" d="M36.219,10.8a1.119,1.119,0,0,0,0,2.239h6.1a1.119,1.119,0,0,0,0-2.239Z" transform="translate(-28.804 -10.8)" fill="#333"/>
      <path id="Compound_Path" data-name="Compound Path" d="M32.412,22.4H13.719a1.119,1.119,0,0,0,0,2.239h1.119l1.2,13.376A3.358,3.358,0,0,0,19.4,41.093h7.332a3.358,3.358,0,0,0,3.358-3.078l1.2-13.376h1.119a1.119,1.119,0,1,0,0-2.239ZM27.851,37.819a1.119,1.119,0,0,1-1.119,1.035H19.4a1.119,1.119,0,0,1-1.119-1.035l-1.175-13.18H29.026Z" transform="translate(-12.6 -19.154)" fill="#333"/>
    </g>
  </g>
</svg>
