<svg xmlns="http://www.w3.org/2000/svg" width="23.852" height="25" viewBox="0 0 23.852 25">
  <g id="noun_Trash_1526083" transform="translate(379.4 301.2)">
    <g id="Group" transform="translate(-379.4 -301.2)">
      <path id="Path" d="M36.376,10.8a1.276,1.276,0,0,0,0,2.551h6.952a1.276,1.276,0,0,0,0-2.551Z" transform="translate(-27.925 -10.8)" fill="#adadad"/>
      <path id="Compound_Path" data-name="Compound Path" d="M35.177,22.4h-21.3a1.276,1.276,0,0,0,0,2.551h1.276l1.371,15.242A3.827,3.827,0,0,0,20.349,43.7H28.7a3.827,3.827,0,0,0,3.827-3.508L33.9,24.951h1.276a1.276,1.276,0,1,0,0-2.551Z" transform="translate(-12.6 -18.701)" fill="#adadad"/>
    </g>
  </g>
</svg>
